HIERARCHY
ROOT hip
{
	OFFSET 0.000000 0.000000 0.000000 
	CHANNELS 6 Xposition Yposition Zposition Xrotation Zrotation Yrotation
	JOINT abdomen
	{
		OFFSET 0.000000 3.402643 0.000000 
		CHANNELS 3 Xrotation Zrotation Yrotation
		JOINT chest
		{
			OFFSET 0.000000 8.438565 -0.680529 
			CHANNELS 3 Xrotation Zrotation Yrotation
			JOINT neck
			{
				OFFSET 0.000000 10.207942 -0.272212 
				CHANNELS 3 Xrotation Zrotation Yrotation
				JOINT head
				{
					OFFSET 0.000000 3.130431 0.000000 
					CHANNELS 3 Xrotation Zrotation Yrotation
					End Site
					{
						OFFSET 0.000000 3.130435 0.000000 
					}
				}
			}
			JOINT lCollar
			{
				OFFSET 3.470700 6.669187 -0.816635 
				CHANNELS 3 Yrotation Zrotation Xrotation
				JOINT lShldr
				{
					OFFSET 3.198488 0.000000 0.000000 
					CHANNELS 3 Zrotation Yrotation Xrotation
					JOINT lForeArm
					{
						OFFSET 10.139888 0.000000 0.000000 
						CHANNELS 3 Yrotation Zrotation Xrotation
						JOINT lHand
						{
							OFFSET 8.370511 0.000000 0.000000 
							CHANNELS 3 Zrotation Yrotation Xrotation
							End Site
							{
								OFFSET 4.083176 0.000000 0.000000 
							}
						}
					}
				}
			}
			JOINT rCollar
			{
				OFFSET -3.470700 6.669187 -0.816635 
				CHANNELS 3 Yrotation Zrotation Xrotation
				JOINT rShldr
				{
					OFFSET -3.198488 0.000000 0.000000 
					CHANNELS 3 Zrotation Yrotation Xrotation
					JOINT rForeArm
					{
						OFFSET -10.139888 0.000000 0.000000 
						CHANNELS 3 Yrotation Zrotation Xrotation
						JOINT rHand
						{
							OFFSET -8.370511 0.000000 0.000000 
							CHANNELS 3 Zrotation Yrotation Xrotation
							End Site
							{
								OFFSET -4.083176 0.000000 0.000000 
							}
						}
					}
				}
			}
		}
	}
	JOINT lThigh
	{
		OFFSET 5.308129 -1.633274 1.361059 
		CHANNELS 3 Xrotation Zrotation Yrotation
		JOINT lShin
		{
			OFFSET -2.041588 -20.007561 0.000000 
			CHANNELS 3 Xrotation Zrotation Yrotation
			JOINT lFoot
			{
				OFFSET 0.000000 -19.190928 -1.224953 
				CHANNELS 3 Xrotation Yrotation Zrotation
				End Site
				{
					OFFSET 0.000000 -2.449906 4.627600 
				}
			}
		}
	}
	JOINT rThigh
	{
		OFFSET -5.308129 -1.633274 1.361059 
		CHANNELS 3 Xrotation Zrotation Yrotation
		JOINT rShin
		{
			OFFSET 2.041588 -20.007561 0.000000 
			CHANNELS 3 Xrotation Zrotation Yrotation
			JOINT rFoot
			{
				OFFSET 0.000000 -19.190928 -1.224953 
				CHANNELS 3 Xrotation Yrotation Zrotation
				End Site
				{
					OFFSET 0.000000 -2.449906 4.627600 
				}
			}
		}
	}
}
MOTION
Frames: 19
Frame Time: 0.011111
34.252777 64.147514 -71.882179 -4.830046 7.582469 -81.737198 37.756992 -0.617011 -2.856960 -22.808716 4.409418 -0.751160 -8.913068 12.210505 13.612199 25.159548 -41.349667 20.648499 3.020945 -4.671623 1.932447 -63.614208 -20.967592 40.102554 -76.818939 7.730137 20.612228 8.524705 12.647240 -33.763069 -4.079493 7.469375 2.114597 60.037853 26.468008 30.519258 58.902218 -9.182424 11.928269 -8.534408 -12.637552 49.095562 3.141273 2.145609 -5.119957 32.945080 -5.167754 -5.228896 13.097023 -20.802851 0.451197 -53.976940 -14.002205 2.883942 63.413853 2.325527 8.418605 -22.992668 -0.789561 2.138562 
33.829094 64.292595 -71.949722 -4.967406 7.903334 -81.765579 37.537880 -0.584303 -3.057719 -22.818415 4.368312 -0.799147 -8.924722 12.478994 13.687501 25.373081 -41.600067 20.760674 3.020945 -4.671623 1.932447 -63.257832 -20.564976 40.640255 -76.291977 7.894062 20.322893 8.524705 12.647240 -33.050182 -4.079493 7.469375 2.114597 60.191696 26.560419 30.734892 59.294559 -9.214811 12.094117 -8.534408 -12.637552 49.329933 2.270017 2.406917 -3.545474 33.930450 -5.104708 -5.347343 14.863653 -21.772163 1.284542 -53.607285 -14.080822 2.684530 63.277618 2.335169 8.394433 -22.851301 -1.441565 1.886563 
33.408230 64.416733 -71.983490 -5.043314 8.189889 -81.807449 37.251705 -0.404070 -3.243468 -22.701553 4.786603 -0.884129 -8.817791 12.098079 13.889301 25.341547 -41.972343 20.988047 3.020945 -4.671623 1.932447 -63.568180 -20.304342 41.178646 -75.711220 8.063037 20.006624 8.524705 12.647240 -32.102917 -4.079493 7.469375 2.114597 59.548649 26.709572 31.338396 59.796078 -9.263131 12.326394 -8.534408 -12.637552 50.072128 1.791851 1.539103 -6.937605 35.144791 -5.012098 -5.485924 14.223825 -18.981356 0.745334 -53.188892 -14.178543 2.220815 63.111725 2.364551 8.379512 -23.570911 -1.597219 1.747900 
32.995808 64.564629 -72.041336 -5.271749 8.415059 -81.931374 37.131065 -0.407698 -3.414478 -22.623093 4.757104 -0.915581 -8.852041 12.429416 14.017861 25.524450 -42.284481 21.220573 3.020945 -4.671623 1.932447 -63.534924 -20.158537 41.535583 -74.962471 8.260202 19.603521 8.524705 12.647240 -31.038464 -4.079493 7.469375 2.114597 59.436817 26.899065 31.513609 60.189110 -9.291005 12.493814 -8.534408 -12.637552 50.452980 1.263347 0.973350 -7.611735 36.523548 -4.914913 -5.685538 14.178363 -17.601149 0.601712 -52.903957 -14.315144 2.685377 63.121338 2.354698 8.384115 -23.893713 -0.260215 2.274253 
32.604645 64.634666 -72.116997 -5.561103 8.537754 -82.032433 37.182312 -0.772027 -3.390464 -22.681913 4.758360 -0.861887 -8.880467 12.709352 13.938788 25.874273 -42.470337 20.969757 3.020945 -4.671623 1.932447 -63.632629 -20.107590 41.665993 -73.942673 8.501829 19.067831 8.524705 12.647240 -30.325573 -4.079493 7.469375 2.114597 59.447220 26.908485 31.377308 60.606098 -9.327013 12.691779 -8.534408 -12.637552 50.745949 0.483687 0.816852 -6.263341 38.257988 -4.787897 -5.894025 14.522181 -17.695044 0.731833 -52.394012 -14.334141 2.373200 62.984577 2.392826 8.376509 -24.517071 -1.180700 1.804893 
32.210983 64.776001 -72.161087 -5.497208 8.609571 -82.069901 37.175465 -0.639287 -3.150184 -22.730358 4.427335 -0.814209 -8.855070 13.084894 13.879323 26.159908 -42.676323 20.768566 3.020945 -4.671623 1.932447 -62.758556 -19.969933 43.194691 -73.441597 8.613319 18.821011 8.524705 12.647240 -28.860729 -4.079493 7.469375 2.114597 59.603142 26.815212 31.579243 61.137051 -9.355837 12.921582 -8.534408 -12.637552 51.283062 -0.371083 0.642700 -6.332582 40.295292 -4.640896 -6.139439 14.191682 -16.868036 0.528105 -51.749237 -14.216690 2.465267 62.818508 2.393774 8.364091 -24.962812 -0.340547 2.114000 
31.832954 64.870117 -72.168907 -5.093711 8.559138 -82.143112 37.205887 0.061026 -2.793138 -22.671104 4.085878 -0.816480 -8.837770 13.345056 13.953737 26.275562 -43.099373 20.852610 3.020945 -4.671623 1.932447 -62.806610 -19.910313 43.059711 -72.602798 8.770702 18.378283 8.524705 12.647240 -29.710339 -4.079493 7.469375 2.114597 59.665535 26.871719 31.845409 61.606884 -9.385125 13.135988 -8.534408 -12.637552 51.478378 -1.461397 1.305886 -4.333086 42.567383 -4.455620 -6.396549 14.243480 -17.365414 0.590999 -50.863995 -13.777941 2.180530 62.623116 2.413441 8.350657 -25.286356 -0.358156 2.058205 
31.470556 65.018951 -72.140770 -3.612258 8.272930 -82.143517 37.387321 1.995936 -1.455765 -22.582155 3.112587 -0.736310 -8.947713 13.665700 13.934503 26.514336 -43.431870 20.766537 3.020945 -4.671623 1.932447 -63.046062 -19.993164 42.540695 -71.658836 8.933187 17.902662 8.524705 12.647240 -31.390026 -4.079493 7.469375 2.114597 59.940052 26.979574 31.734039 62.054462 -9.406844 13.341026 -8.534408 -12.637552 51.361187 -2.564476 2.126223 -5.469543 45.130508 -4.241180 -6.691411 13.301740 -15.699946 0.070154 -49.206352 -12.411737 0.999302 62.193504 2.490372 8.313254 -25.708092 -0.424565 1.993033 
31.139116 65.086807 -72.209244 -4.637568 8.604484 -82.184555 37.355068 1.038841 -2.499930 -22.758629 3.652602 -0.874395 -8.741332 13.770014 14.100941 26.547913 -43.870430 20.973270 3.020945 -4.671623 1.932447 -63.278450 -19.783083 42.236542 -70.999687 9.028072 17.571774 8.524705 12.647240 -30.852915 -4.079493 7.469375 2.114597 59.612370 27.029898 32.257519 62.524441 -9.427682 13.547973 -8.534408 -12.637552 51.634621 -3.700512 0.810086 -5.450587 47.690308 -4.007100 -6.960430 12.959876 -15.544983 -0.045710 -49.402973 -13.349790 1.483922 62.144230 2.494968 8.321652 -25.880909 -0.249676 2.053005 
30.804546 65.169037 -72.179840 -3.754218 8.587413 -82.073769 37.318779 2.346536 -1.888467 -22.728786 3.134354 -0.891760 -8.637245 13.778481 14.226592 26.496950 -44.092831 21.182064 3.020945 -4.671623 1.932447 -63.147327 -19.678427 42.525013 -70.245071 9.126352 17.200449 8.524705 12.647240 -31.126354 -4.079493 7.469375 2.114597 59.509281 27.189783 32.545948 62.907566 -9.439454 13.729219 -8.534408 -12.637552 51.800640 -5.482635 2.595027 -2.400066 50.461449 -3.726770 -7.276420 13.214152 -17.859974 0.253124 -48.407219 -12.636656 0.666357 61.861774 2.519656 8.275043 -26.240395 -0.126932 2.057226 
30.460287 65.233139 -72.224876 -4.077234 8.651331 -82.272408 37.369453 1.933324 -1.892499 -22.660269 2.990846 -0.833796 -8.733269 14.004642 14.187210 26.672552 -44.215153 21.094112 3.020945 -4.671623 1.932447 -62.927010 -19.565889 43.568783 -69.919769 9.165574 17.044199 8.524705 12.647240 -29.134169 -4.079493 7.469375 2.114597 59.812157 27.257608 32.416321 63.311558 -9.447350 13.914826 -8.534408 -12.637552 51.810406 -6.523267 1.865111 -2.820080 53.170208 -3.480473 -7.514499 12.410568 -17.306257 -0.095696 -48.009823 -12.723075 0.875138 61.802620 2.529499 8.285643 -26.591606 -0.075581 2.036916 
30.113840 65.299744 -72.265839 -4.354816 8.674891 -82.397758 37.459179 1.584079 -1.889176 -22.621147 2.924881 -0.780474 -8.824554 14.097063 14.179523 26.811302 -44.261890 21.073082 3.020945 -4.671623 1.932447 -62.759861 -19.608488 43.885124 -69.275787 9.229934 16.726595 8.524705 12.647240 -29.134169 -4.079493 7.469375 2.114597 59.840839 27.227306 32.466381 63.781960 -9.459728 14.133837 -8.534408 -12.637552 51.937359 -7.631262 1.219712 -2.929119 56.002434 -3.160339 -7.793434 11.653662 -16.927643 -0.385379 -47.534412 -12.801770 0.988048 61.695290 2.539191 8.273071 -26.975565 -0.159042 1.948284 
29.766453 65.400429 -72.281784 -3.762558 8.649738 -82.275055 37.443722 2.307023 -1.400673 -22.611250 2.603315 -0.758543 -8.787095 14.119760 14.206322 26.890198 -44.411949 21.039579 3.020945 -4.671623 1.932447 -62.476341 -19.751181 44.226555 -68.262840 9.318848 16.232121 8.524705 12.647240 -29.925182 -4.079493 7.469375 2.114597 59.778404 27.170811 32.581097 64.217491 -9.465303 14.338930 -8.534408 -12.637552 52.064308 -9.288960 2.263713 -1.370210 58.937866 -2.856713 -8.065639 11.475112 -18.095743 -0.369010 -46.606091 -12.245029 0.413866 61.460869 2.568454 8.251925 -27.400213 -0.373982 1.803303 
29.427509 65.476715 -72.420616 -4.356720 8.943964 -82.253807 37.286098 1.424240 -2.110652 -22.621317 3.236104 -0.821125 -8.678161 14.040911 14.276404 26.872713 -44.759007 21.054155 3.020945 -4.671623 1.932447 -63.625130 -19.394672 41.750992 -67.532608 9.368537 15.877471 8.524705 12.647240 -33.177135 -4.079493 7.469375 2.114597 59.569180 27.187738 32.899994 64.623863 -9.464926 14.518139 -8.534408 -12.637552 52.347511 -10.927678 1.835899 -0.507007 61.968372 -2.495639 -8.308257 11.110422 -18.586918 -0.474339 -46.492287 -12.587637 0.764505 61.256081 2.597719 8.223370 -27.725639 -0.634563 1.624283 
29.096067 65.593033 -72.455940 -3.724205 8.945273 -82.109962 37.240307 2.197585 -1.866343 -22.631044 3.195139 -0.869043 -8.513534 13.726893 14.454906 26.630058 -44.881298 21.370304 3.020945 -4.671623 1.932447 -64.143700 -19.168480 41.427509 -67.001335 9.395219 15.624003 8.524705 12.647240 -34.202526 -4.079493 7.469375 2.114597 59.230145 27.209032 33.481609 65.080399 -9.459086 14.731006 -8.534408 -12.637552 52.874863 -12.555104 1.542162 -1.903617 65.043076 -2.135909 -8.565547 10.098205 -17.534174 -0.898633 -45.558952 -11.961430 0.270919 60.874496 2.636895 8.205536 -28.145996 -0.627016 1.583291 
28.768379 65.708099 -72.418106 -2.134424 8.704866 -81.858795 37.347614 4.093184 -0.725650 -22.728460 2.452386 -0.836326 -8.313178 13.755077 14.571379 26.525259 -45.003811 21.568205 3.020945 -4.671623 1.932447 -64.000572 -18.976250 41.624580 -66.332787 9.424125 15.309085 8.524705 12.647240 -33.597054 -4.079493 7.469375 2.114597 59.225964 27.111446 33.731052 65.443611 -9.457313 14.903546 -8.534408 -12.637552 53.216656 -14.726269 4.306535 0.362507 68.262161 -1.745214 -8.775230 10.123827 -19.579193 -0.809091 -44.015797 -10.603961 -0.969185 60.386269 2.695543 8.151232 -28.515390 -0.360995 1.665714 
28.447571 65.756256 -72.545998 -2.657829 8.819447 -81.873924 37.309883 3.118703 -1.092733 -22.679678 2.650104 -0.792750 -8.274282 14.022237 14.534333 26.536961 -45.154621 21.503948 3.020945 -4.671623 1.932447 -63.510044 -18.723152 43.889622 -65.864738 9.437165 15.084429 8.524705 12.647240 -37.093151 -4.079493 7.469375 2.114597 59.624874 27.088110 33.400520 65.709412 -9.451623 15.028286 -8.534408 -12.637552 53.060402 -16.219193 3.505141 0.292252 71.243416 -1.374556 -8.978086 9.516876 -19.223116 -1.050724 -43.639900 -10.878695 -0.733514 60.102863 2.724724 8.125501 -28.749645 -0.304779 1.648102 
28.132702 65.825043 -72.528168 -2.385088 8.722664 -81.851631 37.373989 3.496303 -0.602831 -22.484184 2.020058 -0.713324 -8.364046 14.108185 14.478847 26.439978 -45.118546 21.508442 3.020945 -4.671623 1.932447 -63.136219 -18.799538 45.194736 -65.376999 9.451923 14.867134 8.524705 12.647240 -38.792374 -4.079493 7.469375 2.114597 60.005863 27.114128 33.137440 66.016960 -9.441397 15.168986 -8.534408 -12.637552 53.070171 -17.958414 4.492342 1.849157 74.270508 -0.986796 -9.179449 9.216208 -20.207981 -1.132440 -42.752579 -10.644258 -1.142308 59.682117 2.773686 8.099511 -29.001228 -0.140266 1.707337 
27.808140 65.936981 -72.526924 -1.771833 8.673071 -81.632591 37.326595 4.254644 0.025252 -22.132824 1.332401 -0.642538 -8.596391 14.107491 14.425889 26.304468 -44.993549 21.555628 3.020945 -4.671623 1.932447 -62.623764 -18.868977 47.087460 -65.354378 9.448315 14.846664 8.524705 12.647240 -39.690807 -4.079493 7.469375 2.114597 60.344231 27.307653 33.072029 66.346313 -9.431104 15.329385 -8.534408 -12.637552 53.714703 -19.734745 4.628607 1.395164 77.142220 -0.613468 -9.290688 8.291978 -19.783709 -1.500263 -41.731133 -10.164497 -1.799281 59.262314 2.822348 8.044147 -29.304255 -0.120089 1.676890 
